# xmcd CD database file
#
# Track frame offsets:
#	150
#	20982
#	35632
#	58245
#	74302
#	96415
#	121835
#	142907
#	162695
#	181332
#	199492
#
# Disc length: 2905 seconds
#
# Revision: 0
# Processed by: cddbd v1.5.1PL0 Copyright (c) Steve Scherf et al.
# Submitted via: CDex 1.51
#
DISCID=ac0b570b
DTITLE=Boog Aloo Baby - #1
DYEAR=2003
DGENRE=Jazz
TTITLE0=Pentacostal Feeling
TTITLE1=Cold Duck Time
TTITLE2=Sunday
TTITLE3=Sunny
TTITLE4=Big Alice
TTITLE5=High Heel Sneakers
TTITLE6=Waiting a Minute Baby
TTITLE7=Hot Barbecue
TTITLE8=Hot Little Mama
TTITLE9=Hush
TTITLE10=Walk On By
EXTD=YEAR: 2003
EXTT0=
EXTT1=
EXTT2=
EXTT3=
EXTT4=
EXTT5=
EXTT6=
EXTT7=
EXTT8=
EXTT9=
EXTT10=
PLAYORDER=
